<svg xmlns="http://www.w3.org/2000/svg" viewBox="0 0 512 512">
  <rect width="512" height="512" rx="100" fill="#6C3483"/>
  <!-- 지도 핀 배경 -->
  <ellipse cx="256" cy="380" rx="80" ry="18" fill="rgba(0,0,0,0.2)"/>
  <!-- 지도 핀 -->
  <path d="M256 100 C196 100 148 148 148 208 C148 288 256 400 256 400 C256 400 364 288 364 208 C364 148 316 100 256 100Z" fill="#AF7AC5"/>
  <path d="M256 100 C196 100 148 148 148 208 C148 288 256 400 256 400 C256 400 364 288 364 208 C364 148 316 100 256 100Z" fill="white" opacity="0.15"/>
  <!-- 와인 잔 실루엣 -->
  <path d="M232 160 L280 160 L268 220 C268 220 290 230 290 250 C290 268 274 272 256 272 C238 272 222 268 222 250 C222 230 244 220 244 220 Z" fill="white" opacity="0.9"/>
  <rect x="248" y="272" width="16" height="30" rx="4" fill="white" opacity="0.9"/>
  <rect x="234" y="298" width="44" height="8" rx="4" fill="white" opacity="0.9"/>
</svg>
